<svg width="480" height="360" viewBox="0 0 480 360" fill="none" xmlns="http://www.w3.org/2000/svg">
  <rect width="480" height="360" rx="48" fill="url(#bg)"/>
  <circle cx="94" cy="74" r="34" fill="#3ED7C4" fill-opacity="0.22"/>
  <circle cx="398" cy="58" r="44" fill="#FFFFFF" fill-opacity="0.12"/>
  <circle cx="402" cy="296" r="58" fill="#3ED7C4" fill-opacity="0.18"/>
  <rect x="86" y="82" width="308" height="196" rx="28" fill="#FFFFFF" fill-opacity="0.12" stroke="#FFFFFF" stroke-opacity="0.22" stroke-width="2"/>
  <rect x="122" y="114" width="150" height="18" rx="9" fill="#FFFFFF" fill-opacity="0.92"/>
  <rect x="122" y="148" width="228" height="14" rx="7" fill="#FFFFFF" fill-opacity="0.22"/>
  <rect x="122" y="176" width="208" height="14" rx="7" fill="#FFFFFF" fill-opacity="0.22"/>
  <rect x="122" y="210" width="92" height="54" rx="18" fill="#3ED7C4"/>
  <path d="M154.5 236.5L170.5 252.5L202.5 218.5" stroke="#0F172A" stroke-width="10" stroke-linecap="round" stroke-linejoin="round"/>
  <rect x="232" y="210" width="118" height="20" rx="10" fill="#FFFFFF" fill-opacity="0.88"/>
  <rect x="232" y="244" width="96" height="16" rx="8" fill="#FFFFFF" fill-opacity="0.26"/>
  <rect x="104" y="96" width="50" height="50" rx="16" fill="#6C63FF"/>
  <path d="M118 122H129L135 111L143 129L148 120H159" stroke="white" stroke-width="6" stroke-linecap="round" stroke-linejoin="round"/>
  <defs>
    <linearGradient id="bg" x1="28" y1="18" x2="430" y2="324" gradientUnits="userSpaceOnUse">
      <stop stop-color="#0F172A"/>
      <stop offset="0.5" stop-color="#312E81"/>
      <stop offset="1" stop-color="#6C63FF"/>
    </linearGradient>
  </defs>
</svg>
